<?xml version="1.0" encoding="utf-8"?>
<!-- Generator: Adobe Illustrator 21.1.0, SVG Export Plug-In . SVG Version: 6.00 Build 0)  -->
<svg version="1.1" id="Layer_1" xmlns="http://www.w3.org/2000/svg" xmlns:xlink="http://www.w3.org/1999/xlink" x="0px" y="0px"
	 width="500px" height="70px" viewBox="0 0 500 70" style="enable-background:new 0 0 500 70;" xml:space="preserve">
<style type="text/css">
	.st0{fill:#FFFFFF;}
	.st1{fill:#006FCF;}
	.st2{fill:#FF5F00;}
	.st3{fill:#EB001B;}
	.st4{fill:#F79E1B;}
	.st5{fill:#1A1F71;}
	.st6{fill:#7673C0;}
	.st7{fill:#00A1DF;}
	.st8{fill:#253B80;}
	.st9{fill:#179BD7;}
	.st10{fill:#222D65;}
</style>
<rect x="245.8" y="11.1" class="st0" width="47" height="47"/>
<path class="st1" d="M284.4,22.6l1.6-4.1h6.9v-7.4h-47v47h47v-7.4h-6.5l-2.4-2.9l-2.4,2.8H263V35.8h-6.1l7.7-17.2h7.4l1.8,3.9v-3.9
	h9.2L284.4,22.6L284.4,22.6z M279.3,25.4v-1.7l0.7,1.7l3.1,8.2h2.9l3.1-8.2l0.6-1.7v9.8h3.2V20.9h-5.3l-2.4,6.3l-0.7,1.8l-0.7-1.8
	l-2.4-6.3H276v12.4h3.3V25.4L279.3,25.4z M272.4,33.4h3.7l-5.5-12.5h-4.3l-5.5,12.5h3.7l1-2.4h6.1L272.4,33.4L272.4,33.4z
	 M267.8,25.1l0.7-1.6l0.7,1.6l1.3,3.2h-3.9L267.8,25.1L267.8,25.1z M265.5,35.8v12.5H276v-2.8h-7.3v-2.2h7.1v-2.7h-7.1v-2.2h7.3
	v-2.7L265.5,35.8L265.5,35.8z M287.7,48.1h4.1l-5.9-6.2l5.9-6.2h-4.1l-3.8,4.1l-3.8-4.1H276l5.9,6.3l-5.9,6.2h4l3.8-4.1L287.7,48.1
	L287.7,48.1z M289.3,42l3.5,3.7v-7.2L289.3,42L289.3,42z"/>
<g>
	<g>
		<g>
			<path class="st0" d="M23.7,59.8v-3.3c0.1-1.1-0.7-2-1.8-2.1c-0.1,0-0.2,0-0.2,0c-0.7,0-1.4,0.3-1.8,0.9c-0.4-0.6-1-1-1.7-0.9
				c-0.6,0-1.2,0.3-1.5,0.8v-0.6h-1.1v5.2h1.1v-2.9c-0.1-0.7,0.4-1.3,1-1.4c0.1,0,0.2,0,0.2,0c0.8,0,1.1,0.5,1.1,1.4v2.9h1.1v-2.9
				c-0.1-0.7,0.4-1.3,1.1-1.4c0.1,0,0.1,0,0.2,0c0.8,0,1.1,0.5,1.1,1.4v2.9L23.7,59.8z M40.6,54.5h-1.9V53h-1.1v1.6h-1.1v1h1.1V58
				c0,1.2,0.5,1.9,1.8,1.9c0.5,0,1-0.1,1.4-0.4l-0.3-1c-0.3,0.2-0.6,0.3-1,0.3c-0.6,0-0.8-0.3-0.8-0.9v-2.4h1.9
				C40.6,55.6,40.6,54.5,40.6,54.5z M50.3,54.4c-0.6,0-1.1,0.3-1.4,0.8v-0.6h-1.1v5.2h1.1v-2.9c0-0.9,0.4-1.3,1.1-1.3
				c0.2,0,0.5,0,0.7,0.1l0.3-1.1C50.9,54.5,50.6,54.4,50.3,54.4L50.3,54.4z M35.7,55c-0.6-0.4-1.4-0.6-2.1-0.5
				c-1.3,0-2.2,0.6-2.2,1.7c0,0.8,0.6,1.4,1.8,1.5l0.5,0.1c0.6,0.1,0.9,0.3,0.9,0.5c0,0.4-0.4,0.6-1.2,0.6c-0.6,0-1.2-0.2-1.7-0.5
				l-0.5,0.9c0.7,0.5,1.5,0.7,2.3,0.7c1.5,0,2.4-0.7,2.4-1.7c0-0.9-0.7-1.4-1.8-1.6l-0.5-0.1c-0.5-0.1-0.9-0.2-0.9-0.5
				c0-0.4,0.4-0.6,1-0.6s1.1,0.2,1.6,0.4L35.7,55z M66.1,54.4c-0.6,0-1.1,0.3-1.4,0.8v-0.6h-1.1v5.2h1.1v-2.9c0-0.9,0.4-1.3,1.1-1.3
				c0.2,0,0.5,0,0.7,0.1l0.3-1.1C66.6,54.5,66.3,54.4,66.1,54.4L66.1,54.4z M51.5,57.1c-0.1,1.5,1.1,2.7,2.5,2.7c0.1,0,0.2,0,0.3,0
				c0.7,0,1.3-0.2,1.9-0.6l-0.5-0.9c-0.4,0.3-0.9,0.5-1.4,0.5c-0.9-0.1-1.6-0.8-1.6-1.8c0.1-0.8,0.7-1.5,1.6-1.6
				c0.5,0,1,0.2,1.4,0.5l0.5-0.9c-0.5-0.4-1.2-0.7-1.9-0.6c-1.5-0.1-2.7,1-2.8,2.5C51.5,57,51.5,57.1,51.5,57.1L51.5,57.1z
				 M62.1,57.1v-2.6H61v0.6c-0.4-0.5-1-0.8-1.6-0.8c-1.5,0.1-2.7,1.4-2.6,2.9c0.1,1.4,1.2,2.5,2.6,2.6c0.6,0,1.3-0.3,1.6-0.8v0.6
				h1.1V57.1z M57.9,57.1c0-0.9,0.8-1.5,1.7-1.5s1.5,0.8,1.5,1.7c0,0.8-0.7,1.5-1.6,1.5c-0.9,0-1.6-0.7-1.6-1.5
				C57.8,57.2,57.8,57.2,57.9,57.1z M44.2,54.4c-1.5,0.1-2.7,1.4-2.6,2.9c0.1,1.4,1.2,2.6,2.7,2.6c0.8,0,1.5-0.2,2.1-0.7l-0.6-0.8
				c-0.4,0.3-1,0.5-1.5,0.5c-0.8,0.1-1.5-0.5-1.6-1.3h3.9c0-0.1,0-0.3,0-0.4C46.6,55.5,45.6,54.4,44.2,54.4L44.2,54.4z M44.2,55.4
				c0.7,0,1.3,0.6,1.3,1.3h-2.7C42.8,56,43.4,55.4,44.2,55.4L44.2,55.4z M72.6,57.1v-4.7h-1.1v2.7c-0.4-0.5-1-0.8-1.6-0.8
				c-1.5,0.1-2.7,1.4-2.6,2.9c0.1,1.4,1.2,2.5,2.6,2.6c0.6,0,1.3-0.3,1.6-0.8v0.6h1.1V57.1z M74.5,59c0.1,0,0.1,0,0.2,0
				s0.1,0.1,0.2,0.1c0,0,0.1,0.1,0.1,0.2c0.1,0.1,0.1,0.3,0,0.4c0,0.1-0.1,0.1-0.1,0.2c0,0-0.1,0.1-0.2,0.1s-0.1,0-0.2,0
				c-0.2,0-0.4-0.1-0.5-0.3c-0.1-0.1-0.1-0.3,0-0.4c0-0.1,0.1-0.1,0.1-0.2c0,0,0.1-0.1,0.2-0.1C74.3,59,74.4,59,74.5,59L74.5,59z
				 M74.5,59.9c0.1,0,0.1,0,0.2,0l0.1-0.1c0.2-0.2,0.2-0.4,0-0.6l-0.1-0.1c0,0-0.1,0-0.2,0s-0.1,0-0.2,0c0,0-0.1,0-0.1,0.1
				c-0.2,0.2-0.2,0.4,0,0.6l0.1,0.1C74.4,59.9,74.4,59.9,74.5,59.9L74.5,59.9z M74.5,59.3C74.6,59.3,74.6,59.3,74.5,59.3l0.2,0.1
				v0.1h-0.1l0.2,0.2h-0.1l-0.1-0.2l0,0v0.2h-0.1v-0.5V59.3L74.5,59.3z M74.4,59.4L74.4,59.4L74.4,59.4c0.1,0.1,0.1,0.1,0.2,0.1l0,0
				l0,0C74.6,59.5,74.6,59.5,74.4,59.4L74.4,59.4L74.4,59.4z M68.4,57.1c0.1-0.9,0.8-1.5,1.7-1.5s1.5,0.8,1.5,1.7
				c0,0.8-0.7,1.5-1.6,1.5s-1.6-0.7-1.6-1.5C68.4,57.2,68.4,57.2,68.4,57.1z M30.1,57.1v-2.6H29v0.6c-0.4-0.5-1-0.8-1.6-0.8
				c-1.5,0.1-2.7,1.4-2.6,2.9c0.1,1.4,1.2,2.5,2.6,2.6c0.6,0,1.3-0.3,1.6-0.8v0.6h1.1V57.1z M25.9,57.1c0-0.9,0.8-1.5,1.7-1.5
				s1.5,0.8,1.5,1.7c0,0.8-0.7,1.5-1.6,1.5s-1.6-0.7-1.6-1.5C25.9,57.2,25.9,57.2,25.9,57.1L25.9,57.1z"/>
			<g>
				<rect x="35.3" y="14.8" class="st2" width="17.2" height="30.8"/>
				<path class="st3" d="M36.4,30.3c0-6,2.8-11.7,7.5-15.4C35.4,8.2,23,9.7,16.4,18.2c-6.7,8.5-5.2,20.9,3.3,27.5
					c7.1,5.6,17.1,5.6,24.2,0C39.2,42,36.4,36.3,36.4,30.3z"/>
				<path class="st4" d="M75.6,30.3c0,10.8-8.8,19.6-19.6,19.6c-4.4,0-8.7-1.5-12.1-4.2c8.5-6.7,10-19,3.3-27.6
					c-1-1.2-2.1-2.3-3.3-3.3c8.5-6.7,20.9-5.2,27.5,3.3C74.2,21.6,75.6,25.9,75.6,30.3L75.6,30.3z"/>
				<path class="st4" d="M73.8,42.4v-0.6H74v-0.1h-0.6v0.1h0.3L73.8,42.4L73.8,42.4z M75,42.4v-0.8h-0.2l-0.2,0.5l-0.2-0.5h-0.2v0.8
					h0.1v-0.6l0.2,0.5h0.1l0.2-0.5v0.6H75L75,42.4z"/>
			</g>
		</g>
	</g>
	<g>
		<path class="st0" d="M151.3,51.8c0,1.2-1,2.2-2.2,2.2H93.6c-1.2,0-2.2-1-2.2-2.2V18.6c0-1.2,1-2.2,2.2-2.2H149
			c1.2,0,2.2,1,2.2,2.2v33.2C151.2,51.8,151.3,51.8,151.3,51.8z"/>
		<path class="st5" d="M114.2,27.3l-6.7,15.9h-4.3l-3.3-12.7c-0.2-0.8-0.4-1.1-1-1.4c-1-0.5-2.6-1-4.1-1.3l0.1-0.5h7
			c0.9,0,1.7,0.6,1.9,1.6l1.7,9.2l4.3-10.8C109.8,27.3,114.2,27.3,114.2,27.3z M131.2,38c0-4.2-5.8-4.4-5.8-6.3
			c0-0.6,0.6-1.2,1.7-1.3c0.6-0.1,2.2-0.1,4.1,0.7l0.7-3.4c-1-0.4-2.3-0.7-3.8-0.7c-4.1,0-6.9,2.2-6.9,5.3c0,2.3,2,3.6,3.6,4.3
			c1.6,0.8,2.1,1.3,2.1,2c0,1.1-1.3,1.5-2.5,1.6c-2.1,0-3.3-0.6-4.2-1l-0.7,3.5c1,0.4,2.7,0.8,4.6,0.8
			C128.3,43.4,131.2,41.3,131.2,38 M141.9,43.1h3.8l-3.3-15.9h-3.5c-0.8,0-1.5,0.5-1.8,1.2L131,43.1h4.3l0.9-2.4h5.3L141.9,43.1z
			 M137.3,37.5l2.2-6l1.2,6H137.3z M120,27.3l-3.4,15.9h-4.1l3.4-15.9C115.9,27.3,120,27.3,120,27.3z"/>
	</g>
	<g>
		<path class="st0" d="M186.2,59.5v-3.3c0.1-1.1-0.7-2-1.8-2.1c-0.1,0-0.2,0-0.2,0c-0.7,0-1.4,0.3-1.8,0.9c-0.4-0.6-1-1-1.7-0.9
			c-0.6,0-1.2,0.3-1.5,0.8v-0.6h-1.1v5.2h1.2v-2.9c-0.1-0.7,0.4-1.3,1-1.4c0.1,0,0.2,0,0.2,0c0.8,0,1.1,0.5,1.1,1.4v2.9h1.2v-2.9
			c-0.1-0.7,0.4-1.3,1.1-1.4c0.1,0,0.1,0,0.2,0c0.8,0,1.2,0.5,1.2,1.4v2.9L186.2,59.5z M192.6,56.9v-2.6h-1.2v0.6
			c-0.4-0.5-1-0.8-1.6-0.8c-1.5,0-2.7,1.2-2.7,2.7s1.2,2.7,2.7,2.7c0.6,0,1.3-0.3,1.6-0.8v0.6h1.1L192.6,56.9z M188.4,56.9
			c0.1-0.9,0.8-1.5,1.7-1.5c0.9,0.1,1.5,0.8,1.5,1.7c0,0.8-0.7,1.5-1.6,1.5c-0.9,0-1.6-0.7-1.6-1.5C188.4,57,188.4,57,188.4,56.9
			L188.4,56.9z M217,54.2c0.4,0,0.7,0.1,1.1,0.2c0.3,0.1,0.6,0.3,0.9,0.6c0.3,0.2,0.5,0.5,0.6,0.9c0.3,0.7,0.3,1.5,0,2.2
			c-0.1,0.3-0.3,0.6-0.6,0.9c-0.3,0.3-0.6,0.4-0.9,0.6c-0.7,0.3-1.5,0.3-2.3,0c-0.3-0.1-0.6-0.3-0.9-0.6c-0.3-0.2-0.5-0.5-0.6-0.9
			c-0.3-0.7-0.3-1.5,0-2.2c0.1-0.3,0.3-0.6,0.6-0.9c0.3-0.3,0.6-0.4,0.9-0.6C216.2,54.2,216.6,54.2,217,54.2L217,54.2z M217,55.3
			c-0.2,0-0.4,0-0.7,0.1c-0.2,0.1-0.4,0.2-0.5,0.3c-0.2,0.2-0.3,0.3-0.3,0.5c-0.2,0.4-0.2,0.9,0,1.4c0.1,0.2,0.2,0.4,0.3,0.5
			c0.1,0.2,0.3,0.3,0.5,0.3c0.4,0.2,0.9,0.2,1.3,0c0.2-0.1,0.4-0.2,0.5-0.3c0.2-0.2,0.3-0.3,0.3-0.5c0.2-0.4,0.2-0.9,0-1.4
			c-0.1-0.2-0.2-0.4-0.3-0.5c-0.2-0.2-0.3-0.3-0.5-0.3C217.5,55.3,217.2,55.2,217,55.3L217,55.3z M198.8,56.9c0-1.6-1-2.7-2.5-2.7
			s-2.7,1.3-2.7,2.8s1.3,2.7,2.8,2.7c0.8,0,1.5-0.2,2.1-0.7l-0.5-0.8c-0.4,0.3-1,0.5-1.5,0.5c-0.8,0.1-1.5-0.5-1.6-1.3h3.9
			C198.8,57.2,198.8,57.1,198.8,56.9z M194.9,56.5c0-0.7,0.7-1.3,1.4-1.3s1.3,0.6,1.3,1.3l0,0H194.9z M203.6,55.6
			c-0.5-0.3-1.1-0.4-1.6-0.5c-0.6,0-1,0.2-1,0.6c0,0.4,0.4,0.5,0.9,0.5l0.5,0.1c1.1,0.2,1.8,0.6,1.8,1.6s-0.9,1.7-2.4,1.7
			c-0.8,0-1.6-0.2-2.3-0.7L200,58c0.5,0.4,1.1,0.6,1.7,0.5c0.8,0,1.2-0.2,1.2-0.6c0-0.3-0.3-0.5-0.9-0.5l-0.5-0.1
			c-1.2-0.2-1.8-0.7-1.8-1.5c0-1,0.9-1.7,2.2-1.7c0.7,0,1.5,0.2,2.1,0.5L203.6,55.6z M209.1,55.3h-1.9v2.4c0,0.5,0.2,0.9,0.8,0.9
			c0.4,0,0.7-0.1,1-0.3l0.3,1c-0.4,0.3-0.9,0.4-1.4,0.4c-1.4,0-1.8-0.7-1.8-1.9v-2.4H205v-1h1.1v-1.6h1.2v1.6h1.9L209.1,55.3
			L209.1,55.3z M213.1,54.2c0.3,0,0.6,0,0.8,0.1l-0.4,1.1c-0.2-0.1-0.5-0.1-0.7-0.1c-0.7,0-1.1,0.5-1.1,1.4v2.9h-1.1v-5.2h1.1V55
			C212,54.5,212.5,54.2,213.1,54.2L213.1,54.2z M221,58.8c0.1,0,0.1,0,0.2,0c0.1,0,0.1,0.1,0.2,0.1c0,0,0.1,0.1,0.1,0.2
			c0.1,0.1,0.1,0.3,0,0.4c0,0.1-0.1,0.1-0.1,0.2c0,0-0.1,0.1-0.2,0.1c-0.1,0-0.1,0-0.2,0c-0.2,0-0.4-0.1-0.5-0.3
			c-0.1-0.1-0.1-0.3,0-0.4c0-0.1,0.1-0.1,0.1-0.2c0,0,0.1-0.1,0.2-0.1C220.8,58.8,220.9,58.8,221,58.8L221,58.8z M221,59.7
			c0.1,0,0.1,0,0.2,0l0.1-0.1c0.2-0.2,0.2-0.4,0-0.6l-0.1-0.1c-0.1,0-0.1,0-0.2,0s-0.1,0-0.2,0l-0.1,0.1c-0.1,0.2-0.1,0.4,0,0.5
			C220.7,59.6,220.9,59.7,221,59.7L221,59.7L221,59.7z M221,59c0.1,0,0.1,0,0.1,0s0.1,0.1,0,0.1v0.1H221l0.2,0.2h-0.1l-0.1-0.2l0,0
			v0.2h-0.1V59H221z M220.9,59.1L220.9,59.1l0.1,0.1c0,0,0,0,0.1,0l0,0l0,0c0,0,0,0-0.1,0L220.9,59.1z"/>
		<g id="_Group_">
			<rect x="190.2" y="14.3" class="st6" width="17.3" height="31.1"/>
			<path id="_Path_" class="st3" d="M191.3,29.8c0-6.1,2.8-11.8,7.5-15.5c-8.6-6.7-21-5.3-27.7,3.3s-5.3,21,3.3,27.7
				c7.2,5.6,17.2,5.6,24.4,0C194.1,41.6,191.3,35.9,191.3,29.8z"/>
			<path class="st7" d="M228.9,42.1v-0.6h0.3v-0.1h-0.7v0.1h0.3L228.9,42.1L228.9,42.1L228.9,42.1z M230.2,42.1v-0.8H230l-0.2,0.5
				l-0.2-0.5h-0.2v0.8h0.1v-0.6l0.2,0.5h0.1l0.2-0.5v0.6H230.2z"/>
			<path class="st7" d="M230.8,29.8c0,10.9-8.8,19.8-19.8,19.8c-4.4,0-8.7-1.5-12.2-4.2c8.6-6.7,10.1-19.2,3.3-27.7
				c-1-1.2-2.1-2.4-3.3-3.3c8.6-6.7,21-5.3,27.7,3.3C229.3,21.1,230.8,25.4,230.8,29.8L230.8,29.8z"/>
		</g>
	</g>
	<g>
		<path id="XMLID_4_" d="M482.4,15.2h-50.3c-0.2,0-0.4,0-0.6,0s-0.4,0-0.5,0c-0.4,0-0.8,0-1.2,0.1c-0.4,0.1-0.7,0.2-1.1,0.4
			c-0.3,0.2-0.7,0.4-0.9,0.7s-0.5,0.6-0.7,0.9c-0.2,0.4-0.3,0.7-0.4,1.1s-0.1,0.8-0.1,1.2c0,0.2,0,0.4,0,0.5c0,0.2,0,0.4,0,0.6v28.2
			c0,0.2,0,0.4,0,0.6c0,0.2,0,0.4,0,0.5c0,0.4,0,0.8,0.1,1.2s0.2,0.7,0.4,1.1c0.2,0.3,0.4,0.7,0.7,0.9c0.3,0.3,0.6,0.5,0.9,0.7
			c0.4,0.2,0.7,0.3,1.1,0.4c0.4,0.1,0.8,0.1,1.2,0.1c0.2,0,0.4,0,0.5,0c0.2,0,0.4,0,0.6,0h50.3c0.2,0,0.4,0,0.6,0s0.4,0,0.5,0
			c0.4,0,0.8,0,1.2-0.1c0.4-0.1,0.7-0.2,1.1-0.4c0.3-0.2,0.7-0.4,0.9-0.7c0.3-0.3,0.5-0.6,0.7-0.9c0.2-0.3,0.3-0.7,0.4-1.1
			c0.1-0.4,0.1-0.8,0.1-1.2c0-0.2,0-0.4,0-0.5c0-0.2,0-0.4,0-0.6V20.7c0-0.2,0-0.4,0-0.6s0-0.4,0-0.5c0-0.4,0-0.8-0.1-1.2
			c-0.1-0.4-0.2-0.7-0.4-1.1c-0.2-0.3-0.4-0.7-0.7-0.9c-0.3-0.3-0.6-0.5-0.9-0.7c-0.4-0.2-0.7-0.3-1.1-0.4c-0.4-0.1-0.8-0.1-1.2-0.1
			c-0.2,0-0.4,0-0.5,0C482.8,15.2,482.6,15.2,482.4,15.2L482.4,15.2z"/>
		<path id="XMLID_3_" class="st0" d="M482.4,16.5h0.6c0.2,0,0.3,0,0.5,0c0.3,0,0.6,0,1,0.1c0.3,0,0.5,0.1,0.7,0.2s0.4,0.3,0.6,0.4
			c0.2,0.2,0.3,0.4,0.4,0.6s0.2,0.5,0.2,0.7c0.1,0.3,0.1,0.7,0.1,1c0,0.2,0,0.3,0,0.5s0,0.4,0,0.6v28.2c0,0.2,0,0.4,0,0.6
			c0,0.2,0,0.3,0,0.5c0,0.3,0,0.6-0.1,1c0,0.3-0.1,0.5-0.2,0.7s-0.3,0.4-0.4,0.6c-0.2,0.2-0.4,0.3-0.6,0.4c-0.2,0.1-0.5,0.2-0.7,0.2
			c-0.3,0.1-0.7,0.1-1,0.1c-0.2,0-0.3,0-0.5,0s-0.4,0-0.6,0h-50.3l0,0c-0.2,0-0.4,0-0.6,0s-0.3,0-0.5,0c-0.3,0-0.6,0-1-0.1
			c-0.3,0-0.5-0.1-0.7-0.2c-0.2-0.1-0.4-0.3-0.6-0.4c-0.2-0.2-0.3-0.4-0.4-0.6c-0.1-0.2-0.2-0.5-0.2-0.7c-0.1-0.3-0.1-0.7-0.1-1
			c0-0.2,0-0.3,0-0.5v-0.5v-0.1V20.7v-0.1v-0.5c0-0.2,0-0.3,0-0.5c0-0.3,0-0.6,0.1-1c0-0.3,0.1-0.5,0.2-0.7s0.3-0.4,0.4-0.6
			s0.4-0.3,0.6-0.4s0.5-0.2,0.7-0.2c0.3-0.1,0.7-0.1,1-0.1c0.2,0,0.3,0,0.5,0h0.6L482.4,16.5"/>
		<g>
			<g>
				<path d="M443.3,28.4c0.5-0.7,0.9-1.5,0.8-2.4c-0.8,0-1.7,0.5-2.2,1.2c-0.5,0.6-0.9,1.5-0.8,2.3C441.9,29.5,442.8,29,443.3,28.4"
					/>
				<path d="M444.1,29.6c-1.3-0.1-2.3,0.7-2.9,0.7s-1.5-0.7-2.5-0.7c-1.3,0-2.5,0.7-3.1,1.9c-1.3,2.3-0.4,5.8,1,7.6
					c0.6,0.9,1.4,2,2.4,1.9c1,0,1.3-0.6,2.5-0.6S443,41,444,41s1.7-0.9,2.3-1.9c0.7-1.1,1-2.1,1-2.1s-2-0.8-2-3.1
					c0-1.9,1.6-2.8,1.6-2.9C446,29.8,444.6,29.7,444.1,29.6"/>
			</g>
			<g>
				<path d="M455,27c2.7,0,4.6,1.9,4.6,4.6s-1.9,4.6-4.7,4.6h-3V41h-2.2V27H455L455,27z M451.9,34.4h2.5c1.9,0,3-1,3-2.8
					s-1.1-2.8-3-2.8h-2.5V34.4L451.9,34.4z"/>
				<path d="M460.2,38.1c0-1.8,1.4-2.9,3.8-3l2.8-0.2v-0.8c0-1.1-0.8-1.8-2-1.8s-2,0.6-2.2,1.5h-2c0.1-1.8,1.7-3.2,4.2-3.2
					s4.1,1.3,4.1,3.4v7h-2v-1.7l0,0c-0.6,1.1-1.9,1.9-3.2,1.9C461.6,41.2,460.2,40,460.2,38.1z M466.8,37.2v-0.8l-2.5,0.2
					c-1.3,0.1-2,0.6-2,1.5s0.7,1.5,1.9,1.5C465.6,39.6,466.8,38.6,466.8,37.2z"/>
				<path d="M470.7,44.8v-1.7c0.2,0,0.5,0,0.7,0c1,0,1.5-0.4,1.8-1.5l0.2-0.6l-3.7-10.2h2.3l2.6,8.3l0,0l2.6-8.3h2.2l-3.8,10.8
					c-0.9,2.5-1.9,3.3-4,3.3C471.4,44.9,470.9,44.8,470.7,44.8z"/>
			</g>
		</g>
	</g>
</g>
<g>
	<g>
		<g>
			<rect x="320.7" y="18.9" class="st0" width="37.5" height="31.3"/>
			<circle class="st0" cx="320.7" cy="34.5" r="15.6"/>
		</g>
		<g>
			<rect x="358.2" y="18.9" class="st0" width="37.5" height="31.3"/>
			<circle class="st0" cx="395.7" cy="34.5" r="15.6"/>
		</g>
	</g>
	<g>
		<path class="st8" d="M350.5,28.7h-4c-0.3,0-0.5,0.2-0.6,0.4l-1.6,10.2c0,0.2,0.1,0.4,0.4,0.4h1.9c0.3,0,0.5-0.2,0.6-0.5l0.4-2.7
			c0.1-0.3,0.3-0.5,0.6-0.5h1.3c2.6,0,4.1-1.3,4.5-3.8c0.1-1.1,0-1.9-0.5-2.6C352.8,29.1,351.8,28.7,350.5,28.7z M351,32.5
			c-0.2,1.4-1.3,1.4-2.4,1.4H348l0.4-2.7c0-0.1,0.1-0.3,0.4-0.3h0.3c0.7,0,1.4,0,1.7,0.4C351,31.6,351,32,351,32.5z"/>
		<path class="st8" d="M362.4,32.5h-1.9c-0.1,0-0.3,0.1-0.4,0.3l-0.1,0.5l-0.1-0.2c-0.4-0.6-1.4-0.8-2.2-0.8c-2.1,0-3.9,1.6-4.3,3.8
			c-0.2,1.2,0.1,2.2,0.7,3c0.6,0.7,1.4,0.9,2.4,0.9c1.7,0,2.7-1.1,2.7-1.1l-0.1,0.5c0,0.2,0.1,0.4,0.4,0.4h1.7
			c0.3,0,0.5-0.2,0.6-0.5l1-6.6C362.8,32.6,362.6,32.5,362.4,32.5z M359.7,36.2c-0.2,1.1-1.1,1.8-2.2,1.8c-0.6,0-1-0.1-1.3-0.5
			c-0.3-0.4-0.4-0.8-0.3-1.4c0.1-1.1,1.1-1.8,2.2-1.8c0.6,0,1,0.2,1.3,0.5C359.7,35.1,359.8,35.7,359.7,36.2z"/>
		<path class="st8" d="M372.6,32.5h-1.9c-0.2,0-0.4,0.1-0.4,0.2l-2.7,3.9l-1.2-3.7c-0.1-0.2-0.3-0.4-0.5-0.4H364
			c-0.2,0-0.4,0.2-0.3,0.4l2.1,6.2l-2,2.8c-0.1,0.2,0,0.5,0.3,0.5h1.9c0.2,0,0.4-0.1,0.4-0.2l6.4-9.2
			C373,32.8,372.9,32.5,372.6,32.5z"/>
		<path class="st9" d="M378.9,28.7h-4c-0.3,0-0.5,0.2-0.6,0.4l-1.6,10.2c0,0.2,0.1,0.4,0.4,0.4h2c0.2,0,0.4-0.1,0.4-0.4l0.4-2.9
			c0.1-0.3,0.3-0.5,0.6-0.5h1.3c2.6,0,4.1-1.3,4.5-3.8c0.1-1.1,0-1.9-0.5-2.6C381.3,29.1,380.3,28.7,378.9,28.7z M379.4,32.5
			c-0.2,1.4-1.3,1.4-2.4,1.4h-0.6l0.4-2.7c0-0.1,0.1-0.3,0.4-0.3h0.3c0.7,0,1.4,0,1.7,0.4C379.4,31.6,379.5,32,379.4,32.5z"/>
		<path class="st9" d="M390.9,32.5H389c-0.1,0-0.3,0.1-0.4,0.3l-0.1,0.5l-0.1-0.2c-0.4-0.6-1.4-0.8-2.2-0.8c-2.1,0-3.9,1.6-4.3,3.8
			c-0.2,1.2,0.1,2.2,0.7,3c0.6,0.7,1.4,0.9,2.4,0.9c1.7,0,2.7-1.1,2.7-1.1l-0.1,0.5c0,0.2,0.1,0.4,0.4,0.4h1.7
			c0.3,0,0.5-0.2,0.6-0.5l1-6.6C391.3,32.6,391.1,32.5,390.9,32.5z M388.2,36.2c-0.2,1.1-1.1,1.8-2.2,1.8c-0.6,0-1-0.1-1.3-0.5
			c-0.3-0.4-0.4-0.8-0.3-1.4c0.1-1.1,1.1-1.8,2.2-1.8c0.6,0,1,0.2,1.3,0.5C388.2,35.1,388.3,35.7,388.2,36.2z"/>
		<path class="st9" d="M393.1,29l-1.7,10.4c0,0.2,0.1,0.4,0.4,0.4h1.7c0.3,0,0.5-0.2,0.6-0.5l1.6-10.2c0-0.2-0.1-0.4-0.4-0.4h-1.9
			C393.3,28.7,393.1,28.9,393.1,29z"/>
		<path class="st8" d="M327.8,41.9l0.3-1.9h-0.6h-3.2l2.2-14.3c0-0.1,0-0.1,0.1-0.1c0,0,0.1-0.1,0.1-0.1h5.5c1.8,0,3.1,0.4,3.7,1.2
			c0.3,0.4,0.5,0.7,0.6,1.2c0.1,0.4,0.1,0.9,0,1.5v0.1v0.4l0.3,0.1c0.3,0.1,0.4,0.3,0.6,0.5c0.3,0.3,0.4,0.6,0.5,1.2
			c0.1,0.4,0.1,1-0.1,1.7c-0.1,0.7-0.4,1.4-0.6,1.9s-0.6,0.9-1.1,1.2c-0.4,0.3-0.9,0.5-1.4,0.6c-0.5,0.1-1.2,0.2-1.8,0.2h-0.4
			c-0.3,0-0.6,0.1-0.9,0.3c-0.2,0.2-0.4,0.5-0.4,0.8v0.1l-0.5,3.4v0.1c0,0.1,0,0.1,0,0.1s0,0-0.1,0
			C330.4,41.9,327.8,41.9,327.8,41.9z"/>
		<path class="st9" d="M337,29.3L337,29.3L337,29.3c0,0.1,0,0.2-0.1,0.3c-0.7,3.7-3.2,5-6.3,5H329c-0.4,0-0.7,0.3-0.8,0.6l0,0l0,0
			l-0.8,5.2l-0.2,1.4c-0.1,0.2,0.1,0.5,0.4,0.5h2.8c0.4,0,0.6-0.2,0.6-0.6v-0.1l0.5-3.4V38c0.1-0.4,0.4-0.6,0.6-0.6h0.4
			c2.7,0,4.9-1.2,5.6-4.3c0.3-1.4,0.1-2.5-0.6-3.2C337.5,29.7,337.3,29.5,337,29.3z"/>
		<path class="st10" d="M336.2,29c-0.1,0-0.2-0.1-0.4-0.1c-0.1,0-0.2-0.1-0.4-0.1c-0.4-0.1-0.9-0.1-1.4-0.1h-4.3
			c-0.1,0-0.2,0-0.3,0.1c-0.2,0.1-0.4,0.3-0.4,0.5l-0.9,5.8v0.1c0.1-0.4,0.4-0.6,0.8-0.6h1.6c3.2,0,5.6-1.3,6.3-5
			c0-0.1,0.1-0.2,0.1-0.3c-0.2-0.1-0.4-0.1-0.6-0.2C336.3,29,336.3,29,336.2,29z"/>
		<path class="st8" d="M329.2,29.3c0-0.2,0.2-0.4,0.4-0.5c0.1-0.1,0.2-0.1,0.3-0.1h4.3c0.5,0,1,0,1.4,0.1c0.1,0,0.2,0.1,0.4,0.1
			c0.1,0,0.2,0.1,0.4,0.1c0.1,0,0.1,0,0.1,0.1c0.2,0.1,0.4,0.1,0.6,0.2c0.2-1.4,0-2.3-0.7-3.2c-0.8-0.9-2.3-1.3-4.2-1.3h-5.5
			c-0.4,0-0.7,0.3-0.8,0.6l-2.3,14.4c-0.1,0.3,0.1,0.6,0.4,0.6h3.4l0.9-5.4L329.2,29.3z"/>
	</g>
</g>
</svg>
