<?xml version="1.0" encoding="UTF-8"?><svg id="Layer_1" xmlns="http://www.w3.org/2000/svg" viewBox="0 0 200 200"><defs><style>.cls-1{fill-rule:evenodd;}</style></defs><path class="cls-1" d="M79.812,166.397v-34.596h8.928v34.596h-8.928m8.721-37.495h-8.721v-8.575h8.721v8.575m-60.504,37.484v-2.077c-1.881,1.968-7.601,3.077-10.961,2.958C5.573,166.869,0,156.093,0,149.683,0,138.776,6.731,131.354,17.557,130.859c3.936-.179,8.667,1.338,10.472,3.208v-2.643h8.776v34.961h-8.776m-19.264-17.568c0,2.817,.941,5.193,2.811,7.095,1.859,1.909,4.154,2.86,6.85,2.86,2.453,0,4.633-.962,6.525-2.87,1.887-1.919,2.822-4.17,2.822-6.731,0-2.729-.935-5.073-2.789-7.031-1.86-1.952-4.105-2.931-6.666-2.931-2.632,0-4.883,.935-6.742,2.779-1.871,1.876-2.811,4.154-2.811,6.829h0m149.766,17.568v-2.077c-1.887,1.968-7.612,3.077-10.983,2.958-11.483-.397-17.061-11.173-17.061-17.584,0-10.907,6.726-18.329,17.562-18.824,3.936-.179,8.678,1.338,10.482,3.208v-2.643h8.759v34.961h-8.759m-19.27-17.568c0,2.817,.935,5.193,2.795,7.095,1.859,1.898,4.154,2.86,6.851,2.86,2.468,0,4.654-.962,6.524-2.87,1.887-1.919,2.838-4.17,2.838-6.731,0-2.729-.935-5.073-2.806-7.031-1.87-1.952-4.089-2.931-6.649-2.931-2.637,0-4.899,.935-6.759,2.779-1.86,1.876-2.795,4.154-2.795,6.829h0m-71.955,17.568v-2.077c-1.892,1.968-7.601,3.077-10.972,2.958-11.483-.397-17.061-11.173-17.061-17.584,0-10.907,6.72-18.329,17.545-18.824,3.948-.179,8.683,1.338,10.488,3.208v-13.903h8.765v46.221h-8.765m-19.258-17.568c0,2.817,.93,5.193,2.789,7.095,1.854,1.898,4.148,2.86,6.851,2.86,2.474,0,4.648-.962,6.525-2.87,1.886-1.919,2.832-4.17,2.832-6.731,0-2.729-.935-5.073-2.806-7.031-1.859-1.952-4.078-2.931-6.655-2.931-2.626,0-4.893,.935-6.747,2.779-1.86,1.876-2.789,4.154-2.789,6.829h0m71.406,17.568v-2.077c-1.887,1.968-7.595,3.077-10.961,2.958-11.489-.397-17.067-11.173-17.067-17.584,0-10.907,6.731-18.329,17.54-18.824,3.953-.179,8.683,1.338,10.488,3.208v-13.903h8.781v46.221h-8.781m-19.264-17.568c0,2.817,.935,5.193,2.795,7.095,1.871,1.898,4.165,2.86,6.861,2.86,2.458,0,4.644-.962,6.53-2.87,1.876-1.919,2.817-4.17,2.817-6.731,0-2.729-.93-5.073-2.789-7.031-1.871-1.952-4.099-2.931-6.666-2.931-2.626,0-4.882,.935-6.753,2.779-1.86,1.876-2.795,4.154-2.795,6.829h0m89.375-5.769h8.803c-.892-9.684-8.129-11.516-14.322-11.662-5.769-.131-14.424,2.887-14.381,11.277,.054,7.525,6.677,10.102,14.582,10.847,2.229,.206,5.736,.446,5.943,3.067,.256,3.403-3.55,3.675-5.323,3.675-3.888,.038-6.383-2.376-6.383-3.469v-2.186h-9.363l.071,2.099c.212,6.372,8.575,10.804,16.089,10.532,6.388-.245,14.729-2.376,14.718-12.293-.011-8.096-8.661-9.51-14.316-10.233-2.436-.658-6.878-.365-6.796-3.349,.055-2.474,3.056-2.914,5.16-3.002,2.441-.103,5.345-.19,5.519,4.698"/><path class="cls-1" d="M91.115,50.118l30.644-17.393,50.978,88.135h-41.599L91.115,50.118M21.613,110.328l30.415-17.622,15.996,28.154H26.642l-5.029-10.532m34.988-29.768l30.861-17.622,32.922,57.922h-40.926l-22.857-40.3"/></svg>