<?xml version="1.0" encoding="utf-8"?>
<!-- Generator: Adobe Illustrator 25.4.1, SVG Export Plug-In . SVG Version: 6.00 Build 0)  -->
<svg version="1.1" id="Layer_1" xmlns="http://www.w3.org/2000/svg" xmlns:xlink="http://www.w3.org/1999/xlink" x="0px" y="0px"
	 viewBox="0 0 200 200" style="enable-background:new 0 0 200 200;" xml:space="preserve">
<style type="text/css">
	.st0{fill-rule:evenodd;clip-rule:evenodd;}
	.st1{fill:none;stroke:#231F20;stroke-width:0.4998;stroke-miterlimit:22.9256;}
	.st2{fill:#231F20;}
</style>
<g>
	<path d="M20.452,113.223c-3.797,0-5.62-2.904-4.67-6.264c1.968-6.96,14.613-17.276,23.229-17.276c6.288,0,5.808,5.592,2.125,10.362
		l-2.038,2.24C31.797,109.413,25.023,113.223,20.452,113.223 M51.253,66.281c-10.997,0.004-23.11,6.696-30.714,13.032l0.601,0.864
		c11.802-8.227,28.184-13.58,32.7-5.554c2.386,4.236-1.664,12.786-7.365,19.549c1.368-2.988,0.466-8.718-7.481-8.718
		c-13.218,0-39.227,17.409-39.227,35.22c0,7.139,4.975,11.795,13.173,11.795c21.949,0,51.718-35.78,51.718-53.749
		C64.656,72.373,60.985,66.281,51.253,66.281"/>
	<path d="M79.509,113.223c-1.276,0-2.339-0.447-3.003-1.253c-0.694-0.849-0.9-2.051-0.57-3.294c0.725-2.697,3.649-4.809,6.649-4.809
		h7.062l-2.52,9.356H79.509z M99.813,85.17c-2.023-2.47-5.291-3.574-7.631-3.574H79.344l-2.178,8.08h12.105l1.159,0.123
		c0.012,0,1.115,0.128,1.723,0.95c0.498,0.684,0.568,1.705,0.213,3.04l-0.574,2.125h-7.624c-6.565,0-15.717,4.684-17.756,12.249
		c-1.017,3.774-0.127,7.041,1.845,9.442c1.956,2.385,5.644,3.699,9.632,3.699h7.064l-0.004,0.001h8.977l4.213-15.636l3.1-11.497
		C102.456,89.652,101.138,86.781,99.813,85.17"/>
	<path d="M187.986,81.596c-3.472,0-6.694,1.021-9.32,2.957c-2.654,1.95-4.112,4.297-4.985,7.528
		c-1.887,7.008,3.647,10.389,8.101,12.786c3.191,1.722,5.951,3.202,5.355,5.402c-0.425,1.577-1.113,2.955-5.043,2.955h-11.984
		l-2.174,8.082h13.264c3.557,0,6.841-0.738,9.484-2.758c2.654-2.023,4.15-4.849,5.074-8.294c0.887-3.284,0.288-6.412-1.835-8.751
		c-1.767-1.961-4.311-3.325-6.557-4.53c-2.869-1.539-5.581-2.989-5.105-4.749c0.288-1.061,1.352-2.548,3.674-2.548h11.655
		l2.178-8.08H187.986z"/>
	<path d="M118.425,81.596c-3.472,0-6.698,1.021-9.325,2.957c-2.649,1.95-4.11,4.297-4.986,7.528
		c-1.889,7.008,3.655,10.389,8.104,12.786c3.192,1.722,5.948,3.202,5.356,5.402c-0.426,1.577-1.118,2.955-5.045,2.955h-11.984
		l-2.178,8.082h13.267c3.56,0,6.842-0.738,9.486-2.758c2.651-2.023,4.146-4.849,5.075-8.294c0.884-3.284,0.284-6.412-1.834-8.751
		c-1.767-1.961-4.315-3.325-6.563-4.53c-2.869-1.539-5.577-2.989-5.101-4.749c0.287-1.061,1.353-2.548,3.668-2.548h11.653
		l2.182-8.08H118.425z"/>
	<polygon points="136.527,81.596 126.122,121.306 134.911,121.306 145.31,81.596 	"/>
	<path d="M168.699,81.596c-15.473,0.055-23.57,10.306-26.144,19.856c-3.049,11.32,3.012,19.854,14.098,19.854h7.43l2.174-8.082
		h-7.427c-4.15,0-9.854-3.249-7.557-11.773c1.828-6.781,8.471-11.775,15.764-11.775h4.718l2.178-8.08H168.699z"/>
</g>
</svg>
