<?xml version="1.0" encoding="utf-8"?>
<!-- Generator: Adobe Illustrator 25.4.1, SVG Export Plug-In . SVG Version: 6.00 Build 0)  -->
<svg version="1.1" id="Layer_1" xmlns="http://www.w3.org/2000/svg" xmlns:xlink="http://www.w3.org/1999/xlink" x="0px" y="0px"
	 viewBox="0 0 200 200" style="enable-background:new 0 0 200 200;" xml:space="preserve">
<style type="text/css">
	.st0{fill-rule:evenodd;clip-rule:evenodd;}
	.st1{fill:none;stroke:#231F20;stroke-width:0.4998;stroke-miterlimit:22.9256;}
	.st2{fill:#231F20;}
</style>
<g>
	<polygon points="0,146.626 6.617,146.626 6.617,163.203 15.112,154.677 23.52,154.677 14.27,163.107 23.879,177.202 
		15.666,177.202 9.414,167.532 6.617,170.082 6.617,177.202 0,177.202 	"/>
	<path d="M41.406,166.177c-0.432,0.236-0.868,0.43-1.307,0.576c-0.44,0.148-1.044,0.283-1.811,0.409l-1.533,0.25
		c-1.439,0.224-2.479,0.497-3.119,0.818c-1.086,0.546-1.628,1.39-1.628,2.534c0,1.021,0.326,1.758,0.979,2.211
		c0.651,0.454,1.445,0.681,2.381,0.681c1.48,0,2.846-0.377,4.094-1.131c1.248-0.755,1.895-2.13,1.944-4.127V166.177z
		 M37.263,163.409c1.261-0.14,2.162-0.313,2.707-0.522c0.972-0.36,1.459-0.924,1.459-1.689c0-0.931-0.372-1.573-1.114-1.928
		c-0.745-0.354-1.834-0.531-3.273-0.531c-1.616,0-2.757,0.344-3.428,1.034c-0.48,0.509-0.8,1.2-0.96,2.068H26.11
		c0.142-1.969,0.778-3.587,1.906-4.853c1.793-1.983,4.874-2.975,9.242-2.975c2.842,0,5.367,0.488,7.574,1.462
		c2.207,0.977,3.31,2.836,3.31,5.573v10.426c0,0.723,0.017,1.598,0.049,2.627c0.046,0.76,0.178,1.273,0.392,1.545
		c0.216,0.272,0.541,0.496,0.973,0.671v0.886H42.26c-0.205-0.45-0.349-0.874-0.426-1.27c-0.079-0.397-0.142-0.847-0.19-1.353
		c-0.941,0.886-2.026,1.639-3.254,2.262c-1.47,0.732-3.129,1.099-4.98,1.099c-2.362,0-4.314-0.588-5.854-1.761
		c-1.54-1.175-2.309-2.839-2.309-4.995c0-2.792,1.237-4.815,3.711-6.066c1.354-0.68,3.35-1.168,5.984-1.46L37.263,163.409"/>
	<path d="M68.467,154.03c0.087,0.012,0.281,0.032,0.582,0.056v5.982c-0.428-0.028-0.807-0.048-1.137-0.059
		c-0.334-0.009-0.602-0.015-0.807-0.015c-2.718,0-4.542,0.778-5.475,2.331c-0.521,0.874-0.781,2.22-0.781,4.035v10.842h-6.761
		v-22.673h6.402v3.948c1.042-1.502,1.95-2.53,2.727-3.081c1.263-0.923,2.908-1.384,4.93-1.384
		C68.272,154.012,68.379,154.018,68.467,154.03z"/>
	<path d="M87.39,154.03c0.086,0.012,0.279,0.032,0.582,0.056v5.982c-0.427-0.028-0.807-0.048-1.137-0.059
		c-0.334-0.009-0.602-0.015-0.807-0.015c-2.718,0-4.542,0.778-5.474,2.331c-0.521,0.874-0.782,2.22-0.782,4.035v10.842h-6.761
		v-22.673h6.401v3.948c1.043-1.502,1.951-2.53,2.727-3.081c1.264-0.923,2.909-1.384,4.931-1.384
		C87.195,154.012,87.303,154.018,87.39,154.03z"/>
	<path d="M92.006,154.529h6.761v22.673h-6.761V154.529z M98.768,151.796h-6.761v-5.391h6.761V151.796"/>
	<path d="M137.726,154.589c1.115,0.386,2.128,1.061,3.037,2.025c0.733,0.792,1.228,1.765,1.482,2.917
		c0.16,0.765,0.239,1.883,0.239,3.355l-0.046,14.317h-6.93v-14.459c0-0.861-0.16-1.57-0.481-2.126
		c-0.612-1.055-1.735-1.585-3.375-1.585c-1.898,0-3.207,0.681-3.93,2.042c-0.373,0.723-0.557,1.591-0.557,2.605v13.522h-6.76V163.69
		c0-1.348-0.161-2.326-0.479-2.937c-0.576-1.097-1.704-1.646-3.381-1.646c-1.95,0-3.261,0.549-3.93,1.646
		c-0.37,0.625-0.553,1.554-0.553,2.789v13.66h-6.76v-22.673h6.472v3.316c0.842-1.173,1.635-2.009,2.38-2.507
		c1.317-0.884,3.024-1.326,5.118-1.326c1.983,0,3.586,0.381,4.808,1.139c0.984,0.706,1.728,1.609,2.237,2.715
		c0.892-1.326,2-2.3,3.324-2.923c1.403-0.621,2.966-0.932,4.689-0.932C135.477,154.012,136.608,154.205,137.726,154.589z"/>
	<path d="M164.851,171.146c1.063-1.232,1.597-2.984,1.597-5.254c0-2.269-0.534-4.018-1.597-5.243
		c-1.065-1.224-2.591-1.837-4.577-1.837c-1.986,0-3.517,0.613-4.589,1.837c-1.072,1.225-1.609,2.974-1.609,5.243
		c0,2.27,0.537,4.022,1.609,5.254c1.072,1.231,2.603,1.846,4.589,1.846C162.26,172.992,163.785,172.376,164.851,171.146z
		 M170.288,174.412c-2.185,2.353-5.505,3.528-9.955,3.528c-4.451,0-7.77-1.176-9.956-3.528c-2.185-2.353-3.278-5.186-3.278-8.5
		c0-3.256,1.092-6.079,3.278-8.467c2.187-2.387,5.505-3.582,9.956-3.582c4.449,0,7.769,1.195,9.955,3.582
		c2.185,2.388,3.279,5.211,3.279,8.467C173.567,169.226,172.473,172.059,170.288,174.412"/>
	<path d="M192.764,154.03c0.086,0.012,0.279,0.032,0.581,0.056v5.982c-0.427-0.028-0.807-0.048-1.137-0.059
		c-0.334-0.009-0.602-0.015-0.807-0.015c-2.717,0-4.543,0.778-5.474,2.331c-0.521,0.874-0.782,2.22-0.782,4.035v10.842h-6.761
		v-22.673h6.4v3.948c1.043-1.502,1.951-2.53,2.728-3.081c1.263-0.923,2.907-1.384,4.931-1.384
		C192.568,154.012,192.675,154.018,192.764,154.03z"/>
	<polygon points="1.135,56.085 1.135,61.965 45.146,86.289 1.135,110.707 1.135,116.587 55.561,86.506 55.561,86.166 	"/>
	<polygon points="80.784,35.602 75.108,35.602 75.108,71 10.926,35.696 1.135,35.79 80.784,79.935 	"/>
	<polygon points="1.135,136.122 10.926,136.217 75.108,100.914 75.108,135.744 80.784,135.744 80.784,91.955 	"/>
	<polygon points="192.594,56.085 192.594,35.79 113.325,79.725 113.325,35.602 96.296,35.602 96.296,135.98 113.325,135.98 
		113.325,92.165 192.594,136.122 192.594,116.587 138.168,86.506 138.168,86.166 	"/>
	<polygon points="148.584,86.289 192.594,110.707 192.594,61.965 	"/>
	<polygon points="118.622,35.602 118.622,71 182.803,35.696 	"/>
	<polygon points="118.622,100.914 118.622,136.051 182.756,136.122 	"/>
	<g>
		<g>
			<path d="M197.55,154.48c-1.37,0-2.484-1.114-2.484-2.483c0-1.366,1.115-2.477,2.484-2.477c1.351,0,2.45,1.111,2.45,2.477
				C200,153.366,198.901,154.48,197.55,154.48L197.55,154.48z M197.55,149.939c-1.139,0-2.066,0.923-2.066,2.058
				c0,1.138,0.926,2.064,2.066,2.064c1.12,0,2.031-0.926,2.031-2.064C199.581,150.862,198.67,149.939,197.55,149.939L197.55,149.939
				z"/>
		</g>
		<g>
			<path d="M196.518,153.129v-2.258h0.96c0.242,0,0.417,0.02,0.526,0.061c0.109,0.04,0.197,0.112,0.263,0.216
				c0.066,0.104,0.099,0.222,0.099,0.356c0,0.169-0.05,0.309-0.149,0.42c-0.099,0.11-0.248,0.18-0.446,0.209
				c0.099,0.058,0.18,0.121,0.244,0.189c0.064,0.069,0.15,0.191,0.259,0.366l0.276,0.441h-0.545l-0.329-0.492
				c-0.117-0.175-0.198-0.286-0.241-0.332c-0.043-0.045-0.089-0.077-0.137-0.094c-0.048-0.017-0.125-0.025-0.23-0.025h-0.092v0.942
				H196.518z M196.974,151.826h0.337c0.219,0,0.355-0.009,0.409-0.028c0.055-0.018,0.097-0.05,0.128-0.096
				c0.031-0.045,0.046-0.102,0.046-0.17c0-0.076-0.02-0.138-0.061-0.184c-0.04-0.047-0.098-0.076-0.172-0.089
				c-0.037-0.005-0.148-0.008-0.333-0.008h-0.356V151.826z"/>
		</g>
	</g>
</g>
</svg>
