<?xml version="1.0" encoding="utf-8"?>
<!-- Generator: Adobe Illustrator 25.4.1, SVG Export Plug-In . SVG Version: 6.00 Build 0)  -->
<svg version="1.1" id="Layer_1" xmlns="http://www.w3.org/2000/svg" xmlns:xlink="http://www.w3.org/1999/xlink" x="0px" y="0px"
	 viewBox="0 0 200 200" style="enable-background:new 0 0 200 200;" xml:space="preserve">
<style type="text/css">
	.st0{fill-rule:evenodd;clip-rule:evenodd;}
	.st1{fill:none;stroke:#231F20;stroke-width:0.4998;stroke-miterlimit:22.9256;}
	.st2{fill:#231F20;}
</style>
<path class="st0" d="M138.899,125.389c5.48,0.134,10.281-5.126,10.84-9.656c0.537-4.347-3.12-8.37-6.708-8.429
	c-2.736-0.045-5.394-0.03-8.257,0c-3.286,5.774-6.416,11.703-9.289,17.889C130.757,125.293,134.099,125.271,138.899,125.389z
	 M143.374,87.866c2.851-6.094,6.154-11.736,9.117-17.718c3.893-0.103,5.356-0.144,8.601,0c4.27,0.189,6.152,3.704,6.536,6.02
	c0.54,3.255-1.068,6.129-2.924,8.085C160.111,89.092,151.085,88.306,143.374,87.866z M54.351,51.702h38.814l3.175,11.879
	l-47.299-2.956L54.351,51.702z M102.192,84.164l9.762-15.38l29.636-2.458l-27.389-1.545l7.515-13.203c0,0,19.382,0,49.018,0
	c29.636,0,30.48,12.712,28.724,21.56c-1.755,8.849-6.18,15.379-12.992,19.663c-6.812,4.284-13.554,4.986-13.554,4.986
	c5.267,3.722,10.184,13.484,9.832,19.594c-0.352,6.11-0.912,12.43-12.219,20.927c-11.307,8.497-27.74,10.114-27.74,10.114H74.592
	l-3.792-12.993l33.008-2.388l-34.272-2.458l-4.494-15.38l-7.866,14.678l-44.662-3.055l5.719-10.345l98.356-6.544l-91.592-5.495
	l4.882-8.974l99.211-6.459L36.667,83.11l5.829-10.324l55.201-3.441L102.192,84.164z M53.842,135.829l-6.626,12.328H0l4.864-9.057
	L53.842,135.829z"/>
</svg>
