<svg id="Layer_1" data-name="Layer 1" xmlns="http://www.w3.org/2000/svg" viewBox="0 0 200 200"><defs><style>.cls-1{fill:#010101;}.cls-1,.cls-2{fill-rule:evenodd;}.cls-2{fill:#fff;}</style></defs><path class="cls-1" d="M10.312,86.444H0V53.493H23.316c13.205,1.036,17.753,15.117,6.505,22.994,2.679,1.189,5.359,6.091,5.61,8.184V94.72h-10.2V84.079c0-1.958-2.333-4.774-4.571-4.875H12.822V72.253h9.034c5.07.023,7.035-10.313,0-10.485H10.308l0,24.676Z"/><path class="cls-1" d="M68.1,86.891H50.578c-14.327-.7-16.5-22.337-1.434-24.985H68.673V68.32l-5.147,8.916H53.833l4.744-8.217H52.4c-6.094.469-5.488,9.649-.765,9.735H68.1v8.137Z"/><path class="cls-1" d="M100.223,86.891H82.7c-14.327-.7-16.5-22.337-1.435-24.985H100.8V68.32l-5.148,8.916H85.958L90.7,69.019H84.524c-6.095.469-5.489,9.649-.766,9.735h16.467l0,8.137Z"/><path class="cls-1" d="M104.076,86.891h17.691c19.125-1.039,14.829-25.241,2.7-25.368h-7.946V68.7h5.266c5.648.256,5.235,9.843-.191,9.67H114.7V53.386H104.076V86.891Z"/><path class="cls-1" d="M153.09,87.14c-8.51,0-15.412-5.745-15.412-12.828s6.9-12.828,15.412-12.828S168.5,67.229,168.5,74.312,161.6,87.14,153.09,87.14Z"/><path class="cls-1" d="M169.939,86.891V54.534h11.107V68.8h1.53c3.135-.036,6.032-2.727,6.7-6.51H200v1.248c.074,4.485-4.17,6.977-7.18,8.9,4.808.117,5.774,4.456,5.744,7.467v6.989H188.415V80.572a4.459,4.459,0,0,0-4.356-4.356h-3.407V86.891Z"/><path class="cls-1" d="M8.505,102.923,73.182,90.614l71.353,45.9C104.2,115.928,63.863,100.559,8.505,102.923Z"/><path class="cls-1" d="M26.39,134.9l25.427,4.957c9.632-12.383,23.293-18.354,37.66-23.088L73,111.367c-16.309,2.954-31.753,11.59-46.6,23.528Z"/><path class="cls-1" d="M61.038,141.65,86.5,146.614c5.463-11.452,16.035-18.624,24.9-22.671L96.62,119.1c-10.765,1.416-27.367,12.268-35.582,22.547Z"/><path class="cls-1" d="M99.741,104.042l21.921,14.08c24.321-8.693,47.2-18.027,73.442-23.2-31.788.913-63.575,3.513-95.363,9.12Z"/><path class="cls-2" d="M153.09,79.29c-3.171,0-5.743-2.229-5.743-4.978s2.572-4.978,5.743-4.978,5.744,2.229,5.744,4.978-2.572,4.978-5.744,4.978Z"/></svg>